<svg width="196" height="196" viewBox="0 0 196 196" fill="none" xmlns="http://www.w3.org/2000/svg">
<path d="M183.097 62.129C182.558 56.1952 180.714 48.6193 174.597 42.16C172.37 39.7953 169.604 38.0217 166.568 36.7518C164.454 35.8759 162.183 35.3066 159.889 34.9782C159.169 34.8687 158.472 34.8249 157.775 34.7811C157.573 34.7592 157.37 34.7373 157.145 34.7155C150.444 34.387 143.585 36.3357 138.57 40.5616C137.985 41.0652 137.423 41.5688 136.906 42.1162C129.484 49.8674 128.45 59.8956 128.292 65.6104C128.18 67.4278 128.203 68.6978 128.225 69.0043V125.693C128.068 133.159 127.325 137.297 125.099 140.538C123.57 142.925 121.321 144.589 118.735 145.092C118.195 145.202 117.655 145.267 117.093 145.267C112.843 145.267 109.222 142.136 107.76 137.713C107.558 137.232 107.423 136.728 107.288 136.224C106.996 135.217 106.771 134.21 106.636 133.093C106.344 130.75 106.299 128.145 106.299 125.167V123.722V111.548L106.344 82.6673L106.434 70.0553C106.411 68.2817 106.478 65.5229 106.209 62.2823C106.209 62.2604 106.209 62.2385 106.209 62.1947C105.669 56.2609 103.892 48.6412 97.7079 42.1819C95.1892 39.5544 92.2881 37.7152 89.2072 36.5109C88.3976 36.2044 87.5655 35.8978 86.7334 35.6789C86.4861 35.6132 86.2612 35.5694 86.0138 35.5037C85.2267 35.3285 84.4171 35.1534 83.6075 35.022C83.2252 34.9782 82.8429 34.9125 82.4606 34.8687C82.0783 34.8249 81.696 34.7811 81.3362 34.7592C80.7515 34.7154 80.1668 34.6717 79.582 34.6498H79.4471C79.0873 34.6498 78.705 34.6279 78.3452 34.6498C78.2327 34.6498 78.0978 34.6498 77.9854 34.6498H77.8954H77.603C77.2207 34.6717 76.8609 34.7373 76.4786 34.7592C76.3662 34.7592 76.2537 34.7811 76.1413 34.803C75.9164 34.8249 75.714 34.8249 75.4891 34.8687C75.1968 34.8906 74.9269 34.9563 74.6345 35.0001C69.2148 35.8321 64.0874 38.175 60.3767 42.0505C54.5747 48.1157 52.6856 55.4508 52.0559 61.1218C51.7636 63.7931 51.7411 66.114 51.7411 67.7124C51.7411 68.1285 51.7186 68.5007 51.6961 68.9167L51.7186 125.605C51.5837 133.071 50.8191 137.21 48.5927 140.45C47.7381 141.764 46.6587 142.881 45.4443 143.669C45.2644 143.779 45.0844 143.91 44.9045 144.019C44.8371 144.041 44.7921 144.085 44.7246 144.129C44.4548 144.26 44.2074 144.392 43.96 144.501C43.038 144.895 42.0485 145.092 41.014 145.136C40.8791 145.136 40.7441 145.18 40.5867 145.18C39.125 145.18 37.7307 144.786 36.4713 144.107C34.0875 142.837 32.2209 140.516 31.2539 137.626C29.8371 134.21 29.8371 130.181 29.7697 125.079V68.6978C29.7697 68.6102 29.7697 68.5445 29.7697 68.4788V8.35289C29.7922 3.95183 26.1265 0.382812 21.6063 0.382812C20.5493 0.382812 19.5373 0.601771 18.5928 0.952104C15.5568 2.13448 13.4204 4.98093 13.4204 8.35289L13.3754 36.9707V39.6639L13.353 67.9752L13.3305 85.6451L13.0156 126.415C13.0381 128.211 12.9482 130.991 13.263 134.298C13.8027 140.231 15.6468 147.807 21.7637 154.267C23.9901 156.631 26.7562 158.405 29.7922 159.675C31.9061 160.551 34.1775 161.142 36.4713 161.47C37.1684 161.58 37.8881 161.602 38.5852 161.667C38.8101 161.689 39.0125 161.711 39.2149 161.733C40.002 161.777 40.8116 161.777 41.6212 161.755H41.7336C42.3183 161.733 42.903 161.667 43.4878 161.624C43.6902 161.602 43.915 161.602 44.1174 161.558C44.4098 161.536 44.6797 161.47 44.972 161.427C45.017 161.427 45.062 161.427 45.0844 161.405C49.7846 160.704 54.2373 158.865 57.7905 155.887C58.3752 155.405 58.9375 154.902 59.4547 154.332C66.876 146.603 67.9104 136.575 68.0679 130.86C68.1128 129.152 68.0679 127.816 68.0903 127.05V111.307V69.3546C68.0903 68.2379 68.0903 66.9461 68.1128 65.6104C68.4951 61.2313 69.3272 58.3191 70.9914 55.9325C71.8235 54.6187 72.9029 53.524 74.1173 52.7138C74.2972 52.5824 74.4996 52.473 74.6795 52.3635C74.747 52.3416 74.8145 52.2978 74.8819 52.254C75.1293 52.1226 75.3992 51.9912 75.6465 51.8818C76.681 51.4439 77.8279 51.1811 78.9973 51.1811C80.4816 51.1811 81.8534 51.5971 83.1353 52.254C85.5191 53.524 87.3856 55.8449 88.3301 58.7133C88.8699 60.0051 89.2072 61.3846 89.4321 62.8516C89.5895 64.8441 89.6345 67.0118 89.6345 69.4422V83.0395L89.612 113.803L89.4995 126.393C89.522 128.167 89.4321 130.926 89.7469 134.188V134.254C89.7694 134.517 89.8144 134.779 89.8369 135.02C90.4666 140.844 92.3781 148.048 98.2476 154.245C100.474 156.588 103.218 158.383 106.231 159.631H106.254C109.132 160.813 112.258 161.492 115.406 161.667C115.901 161.689 116.396 161.667 116.891 161.667C117.251 161.667 117.633 161.689 117.993 161.667C118.24 161.667 118.487 161.667 118.757 161.667C119.14 161.645 119.499 161.58 119.859 161.558C120.197 161.536 120.511 161.514 120.849 161.47C121.141 161.448 121.411 161.383 121.703 161.339C127.123 160.507 132.25 158.164 135.961 154.267C141.763 148.201 143.652 140.866 144.282 135.195C144.574 132.524 144.597 130.225 144.597 128.605C144.597 128.211 144.619 127.816 144.642 127.4L144.619 70.7122C144.754 63.2457 145.519 59.1074 147.745 55.8668C148.6 54.5531 149.657 53.4583 150.894 52.6481C151.073 52.5167 151.253 52.4073 151.456 52.2978C151.501 52.2759 151.568 52.2321 151.636 52.1883C151.883 52.0569 152.153 51.9256 152.4 51.8161C153.457 51.3782 154.582 51.1154 155.751 51.1154C157.235 51.1154 158.63 51.5314 159.889 52.1883C162.25 53.4583 164.139 55.7792 165.084 58.6476C166.501 62.0633 166.523 66.0921 166.568 71.2158V127.685C166.568 127.773 166.568 127.838 166.591 127.926V188.03C166.591 192.431 170.234 196 174.777 196C175.833 196 176.845 195.781 177.79 195.431C180.826 194.27 182.962 191.402 182.962 188.03L183.007 156.719L183.052 128.408L183.075 110.716L183.367 69.9677C183.3 68.2379 183.39 65.4353 183.097 62.129Z" fill="#6BF0D6"/>
</svg>
