<svg width="54" height="54" viewBox="0 0 54 54" fill="none" xmlns="http://www.w3.org/2000/svg">
<g clip-path="url(#clip0_12:305)">
<path d="M39.3747 54C31.3106 54 24.7504 47.4388 24.7504 39.3747C24.7504 31.3105 31.3116 24.7504 39.3747 24.7504C47.4389 24.7504 54.0001 31.3116 54.0001 39.3747C54.0001 47.4388 47.4389 54 39.3747 54ZM39.3747 28.1254C33.171 28.1254 28.1254 33.172 28.1254 39.3747C28.1254 45.5773 33.1721 50.625 39.3747 50.625C45.5773 50.625 50.6251 45.5783 50.6251 39.3747C50.6251 33.171 45.5784 28.1254 39.3747 28.1254Z" fill="#1E0242"/>
<path d="M43.3128 45.0003C42.8803 45.0003 42.449 44.8358 42.1199 44.5046L38.1828 40.5675C37.8653 40.25 37.6871 39.8228 37.6871 39.3746V33.1878C37.6871 32.2565 38.4433 31.5003 39.3746 31.5003C40.3059 31.5003 41.0621 32.2565 41.0621 33.1878V38.6753L44.5046 42.1178C45.1637 42.777 45.1637 43.8454 44.5046 44.5046C44.1766 44.8358 43.7441 45.0003 43.3128 45.0003Z" fill="#1E0242"/>
<path d="M20.2499 22.4996C14.0463 22.4996 8.99958 17.453 8.99958 11.2504C8.99958 5.04773 14.0463 0 20.2499 0C26.4536 0 31.5003 5.04668 31.5003 11.2504C31.5003 17.454 26.4536 22.4996 20.2499 22.4996ZM20.2499 3.375C15.9078 3.375 12.3746 6.90715 12.3746 11.2504C12.3746 15.5925 15.9078 19.1246 20.2499 19.1246C24.5921 19.1246 28.1253 15.5925 28.1253 11.2504C28.1253 6.90715 24.5921 3.375 20.2499 3.375Z" fill="#1E0242"/>
<path d="M21.2846 47.25H1.6875C0.756211 47.25 0 46.4938 0 45.5625V37.6871C0 31.7946 4.79461 27 10.6871 27H23.5121C24.4434 27 25.1996 27.7562 25.1996 28.6875C25.1996 29.6188 24.4434 30.375 23.5121 30.375H10.6871C6.65613 30.375 3.375 33.6561 3.375 37.6871V43.875H21.2846C22.2159 43.875 22.9721 44.6312 22.9721 45.5625C22.9721 46.4938 22.2159 47.25 21.2846 47.25Z" fill="#1E0242"/>
</g>
<defs>
<clipPath id="clip0_12:305">
<rect width="54" height="54" fill="white"/>
</clipPath>
</defs>
</svg>
