<svg width="173" height="34" viewBox="0 0 173 34" fill="none" xmlns="http://www.w3.org/2000/svg">
<path d="M35.2495 25.1471V8.84521H37.0046V23.5188H43.4732V25.1471H35.2495Z" fill="white"/>
<path d="M51.5116 21.122C51.6226 23.4884 50.4341 25.4705 47.9607 25.4705C45.7354 25.4705 44.1506 23.9487 44.1506 19.0791C44.1506 16.5339 44.8097 12.7295 47.92 12.7295C51.7263 12.7295 51.5116 16.4274 51.5967 19.2502H45.8872C45.9279 20.8823 45.6502 24.0134 47.9977 24.0134C49.6084 24.0134 50.049 22.4916 49.949 21.1182H51.5116V21.122ZM49.8676 17.8388C49.8009 16.4312 49.8861 14.1942 47.9422 14.1942C45.9946 14.1942 45.9538 16.4122 45.8946 17.8388H49.8676Z" fill="white"/>
<path d="M60.6238 25.147C60.5016 25.1661 60.372 25.1927 60.2462 25.2345C58.8317 25.2954 58.3023 25.1661 58.1282 23.5188H58.0875C57.6876 24.584 56.6064 25.4742 55.4882 25.4742C53.1407 25.4742 52.4631 24.1275 52.4631 21.9323C52.4631 21.472 52.5261 19.7334 54.1516 18.9953C55.1031 18.5616 57.4766 17.6486 57.6839 17.4812C58.0431 17.192 57.9986 16.7165 57.9986 16.0887C57.9986 14.7154 57.4951 14.198 56.1399 14.198C54.6144 14.198 54.4107 14.9132 54.4256 16.3284H52.926C52.8408 13.8289 54.0479 12.7371 56.4139 12.7371C59.9092 12.7371 59.6093 15.7387 59.6093 16.0203V22.9557C59.6093 23.2563 59.5686 23.6938 59.9092 23.865C60.1425 23.9334 60.3906 23.9106 60.6238 23.8916V25.147ZM57.8801 18.6263C57.0507 19.1247 56.1214 19.4975 55.2327 19.935C54.4515 20.3002 54.196 21.1943 54.196 22.016C54.196 23.2372 54.4922 24.0209 55.8474 24.0209C56.4805 24.0209 57.8764 23.5188 57.8764 21.5633V18.6263H57.8801Z" fill="white"/>
<path d="M63.6934 15.0388H63.7342C64.4303 13.4523 65.4226 12.7751 67.1813 12.9349V14.6279C65.0227 14.2398 63.7527 15.6284 63.7527 17.8236V25.1471H62.0828V13.0605H63.6934V15.0388Z" fill="white"/>
<path d="M69.7473 14.3883H69.7881C70.5953 13.3421 71.458 12.7334 72.728 12.7334C74.4868 12.7334 75.6309 13.6921 75.6309 15.8226V25.1472H73.961V16.2981C73.961 15.0389 73.5574 14.1943 72.2022 14.1943C71.5876 14.1943 70.9951 14.434 70.5508 14.8639C69.8732 15.4992 69.7881 16.1916 69.7881 17.0628V25.1472H68.1182V13.0606H69.7473V14.3883Z" fill="white"/>
<path d="M77.8523 8.84521H79.5222V11.0213H77.8523V8.84521ZM77.8523 13.0605H79.5222V25.1471H77.8523V13.0605Z" fill="white"/>
<path d="M83.3582 14.3883H83.3989C84.2061 13.3421 85.0688 12.7334 86.3388 12.7334C88.0939 12.7334 89.2417 13.6921 89.2417 15.8226V25.1472H87.5718V16.2981C87.5718 15.0389 87.1682 14.1943 85.8168 14.1943C85.2021 14.1943 84.6097 14.434 84.1617 14.8639C83.4841 15.4992 83.3989 16.1916 83.3989 17.0628V25.1472H81.729V13.0606H83.3582V14.3883Z" fill="white"/>
<path d="M97.2728 13.0604H98.9427V23.6938C98.9427 25.1699 98.8317 26.2998 98.0504 27.5781C97.3136 28.7764 96.1065 29.2596 94.8143 29.2596C92.9333 29.2596 91.5374 28.3618 91.3004 26.3036H92.937C93.0851 27.3878 93.7627 27.7987 94.7735 27.7987C97.4839 27.7987 97.2062 25.0633 97.2321 23.7394H97.1914C96.4916 24.972 95.7288 25.4742 94.6551 25.4742C92.4298 25.4742 90.8857 23.8878 90.8857 19.0219C90.8857 16.4768 91.5004 12.7371 94.6143 12.7371C95.6844 12.7371 96.6619 13.2811 97.2358 14.4338H97.2802V13.0604H97.2728ZM92.6223 19.1056C92.6223 22.0579 93.1036 24.0171 94.755 24.0171C97.2914 24.0171 97.2728 20.7758 97.2728 18.8431C97.2728 16.4502 96.7841 14.1903 94.9253 14.1903C92.7 14.1941 92.6223 17.4774 92.6223 19.1056Z" fill="white"/>
<path d="M111.447 8.84521H114.535V25.1471H112.776V11.7137C112.776 11.0175 112.817 10.348 112.776 9.65175H112.735C112.546 10.6029 112.398 11.2192 112.247 11.8431L108.929 25.1471H106.829L103.512 11.6491C103.367 11.086 103.238 10.5382 103.049 9.65175H103.008C103.008 10.348 103.049 11.0594 103.049 11.7556V25.1471H101.29V8.84521H104.401L107.503 21.5634C107.674 22.2596 107.759 22.9291 107.844 23.9753H107.888C107.992 23.1498 108.103 22.3471 108.292 21.5367L111.447 8.84521Z" fill="white"/>
<path d="M124.143 25.147C124.021 25.1661 123.891 25.1927 123.765 25.2345C122.347 25.2954 121.822 25.1661 121.648 23.5188H121.607C121.203 24.584 120.122 25.4742 119.008 25.4742C116.66 25.4742 115.982 24.1275 115.982 21.9323C115.982 21.472 116.045 19.7334 117.671 18.9953C118.622 18.5616 120.996 17.6486 121.203 17.4812C121.562 17.192 121.518 16.7165 121.518 16.0887C121.518 14.7154 121.014 14.198 119.659 14.198C118.134 14.198 117.926 14.9132 117.945 16.3284H116.445C116.36 13.8289 117.567 12.7371 119.933 12.7371C123.429 12.7371 123.129 15.7387 123.129 16.0203V22.9557C123.129 23.2563 123.088 23.6938 123.429 23.865C123.662 23.9334 123.91 23.9106 124.143 23.8916V25.147ZM121.399 18.6263C120.57 19.1247 119.641 19.4975 118.752 19.935C117.971 20.3002 117.715 21.1943 117.715 22.016C117.715 23.2372 118.011 24.0209 119.367 24.0209C120 24.0209 121.396 23.5188 121.396 21.5633V18.6263H121.399Z" fill="white"/>
<path d="M125.343 25.1471V8.84521H127.016V18.691H127.057L131.078 13.0605H133.063L129.431 17.7589L133.174 25.1471H131.23L128.283 19.1247L127.016 20.8443V25.1471H125.343Z" fill="white"/>
<path d="M140.716 21.122C140.827 23.4884 139.639 25.4705 137.166 25.4705C134.94 25.4705 133.355 23.9487 133.355 19.0791C133.355 16.5339 134.015 12.7295 137.125 12.7295C140.931 12.7295 140.716 16.4274 140.802 19.2502H135.092C135.133 20.8823 134.855 24.0134 137.203 24.0134C138.813 24.0134 139.254 22.4916 139.154 21.1182H140.716V21.122ZM139.072 17.8388C139.006 16.4312 139.091 14.1942 137.147 14.1942C135.203 14.1942 135.159 16.4122 135.099 17.8388H139.072Z" fill="white"/>
<path d="M146.304 25.4742C143.767 25.4742 142.097 23.9068 142.097 18.6948C142.097 15.0425 143.408 12.7371 146.304 12.7371C149.199 12.7371 150.51 15.0425 150.51 18.6948C150.514 23.9296 148.884 25.4742 146.304 25.4742ZM146.304 14.1942C144.589 14.1942 143.827 15.5866 143.827 19.2312C143.827 22.0807 144.36 24.0171 146.304 24.0171C148.292 24.0171 148.781 22.0807 148.781 19.2312C148.781 15.5866 148.059 14.1942 146.304 14.1942Z" fill="white"/>
<path d="M150.188 13.0605H151.928L154.59 23.6939H154.635L157.301 13.0605H159.03L155.501 25.1472H153.676L150.188 13.0605Z" fill="white"/>
<path d="M165.898 21.122C166.009 23.4884 164.821 25.4705 162.347 25.4705C160.122 25.4705 158.537 23.9487 158.537 19.0791C158.537 16.5339 159.196 12.7295 162.307 12.7295C166.113 12.7295 165.898 16.4274 165.983 19.2502H160.274C160.318 20.8823 160.037 24.0134 162.384 24.0134C163.995 24.0134 164.439 22.4916 164.336 21.1182H165.898V21.122ZM164.251 17.8388C164.184 16.4312 164.269 14.1942 162.325 14.1942C160.378 14.1942 160.337 16.4122 160.274 17.8388H164.251Z" fill="white"/>
<path d="M169.512 15.0388H169.553C170.249 13.4523 171.241 12.7751 173 12.9349V14.6279C170.841 14.2398 169.571 15.6284 169.571 17.8236V25.1471H167.901V13.0605H169.512V15.0388Z" fill="white"/>
<path d="M11.5486 6.01092C11.5116 6.00712 11.4709 6.00332 11.4338 5.99951C11.4968 6.00712 11.5597 6.01853 11.6227 6.02614C11.5968 6.02614 11.5745 6.01853 11.5486 6.01092Z" fill="#00A99D"/>
<path d="M11.2006 5.98063C11.1636 5.97683 11.134 5.97302 11.097 5.96922C11.0525 5.96542 11.0081 5.96922 10.96 5.96922C11.0562 5.96922 11.1525 5.97683 11.2488 5.98824C11.234 5.98444 11.2191 5.98063 11.2006 5.98063Z" fill="#00A99D"/>
<path d="M28.0033 10.7284C27.9144 9.69744 27.6108 8.38111 26.6037 7.25881C26.2371 6.84793 25.7817 6.53978 25.2818 6.31912C24.9338 6.16695 24.5598 6.06803 24.1822 6.01097C24.0637 5.99194 23.9489 5.98433 23.8341 5.97673C23.8008 5.97292 23.7675 5.96912 23.7304 5.96531C22.627 5.90825 21.4977 6.24684 20.672 6.98109C20.5758 7.06859 20.4832 7.15609 20.398 7.2512C19.1761 8.59796 19.0058 10.3404 18.9799 11.3333C18.9614 11.6491 18.9651 11.8698 18.9688 11.923V21.7726C18.9429 23.0699 18.8207 23.789 18.4541 24.352C18.2023 24.7667 17.8321 25.0558 17.4063 25.1433C17.3174 25.1624 17.2285 25.1738 17.136 25.1738C16.4362 25.1738 15.84 24.6297 15.5994 23.8612C15.566 23.7776 15.5438 23.6901 15.5216 23.6025C15.4735 23.4275 15.4364 23.2525 15.4142 23.0585C15.3661 22.6514 15.3587 22.1987 15.3587 21.6813V21.4302V19.315L15.3661 14.297L15.3809 12.1056C15.3772 11.7975 15.3883 11.3181 15.3439 10.7551C15.3439 10.7513 15.3439 10.7475 15.3439 10.7398C15.255 9.70885 14.9625 8.38492 13.9443 7.26262C13.5296 6.80609 13.0519 6.48652 12.5447 6.27727C12.4114 6.22401 12.2744 6.17075 12.1374 6.13271C12.0966 6.12129 12.0596 6.11368 12.0189 6.10227C11.8893 6.07184 11.756 6.0414 11.6227 6.01857C11.5597 6.01096 11.4968 5.99955 11.4339 5.99194C11.3709 5.98433 11.308 5.97673 11.2487 5.97292C11.1524 5.96531 11.0562 5.9577 10.9599 5.9539H10.9377C10.8785 5.9539 10.8155 5.95009 10.7563 5.9539C10.7378 5.9539 10.7155 5.9539 10.697 5.9539H10.6822H10.6341C10.5711 5.9577 10.5119 5.96912 10.4489 5.97292C10.4304 5.97292 10.4119 5.97673 10.3934 5.98053C10.3564 5.98433 10.3231 5.98433 10.286 5.99194C10.2379 5.99575 10.1935 6.00716 10.1453 6.01477C9.25298 6.15934 8.40877 6.56641 7.79783 7.23979C6.84254 8.29361 6.53152 9.56809 6.42784 10.5534C6.37971 11.0176 6.376 11.4208 6.376 11.6986C6.376 11.7708 6.3723 11.8355 6.3686 11.9078L6.3723 21.7574C6.35008 23.0547 6.22419 23.7737 5.85763 24.3368C5.71693 24.5651 5.5392 24.7591 5.33925 24.896C5.30963 24.9151 5.28001 24.9379 5.25039 24.9569C5.23928 24.9607 5.23188 24.9683 5.22077 24.9759C5.17634 24.9988 5.13561 25.0216 5.09488 25.0406C4.94307 25.1091 4.78015 25.1433 4.60983 25.1509C4.58761 25.1509 4.5654 25.1586 4.53948 25.1586C4.2988 25.1586 4.06924 25.0901 3.86189 24.9721C3.4694 24.7515 3.16208 24.3482 3.00287 23.846C2.7696 23.2525 2.7696 22.5525 2.75849 21.6661V11.8698C2.75849 11.8545 2.75849 11.8431 2.75849 11.8317V1.3848C2.76219 0.620119 2.15866 0 1.41442 0C1.2404 0 1.07378 0.0380441 0.918263 0.0989146C0.418402 0.304353 0.0666481 0.798926 0.0666481 1.3848L0.0592428 6.35717V6.82511L0.0555401 11.7442L0.0518374 14.8144L0 21.8982C0.00370267 22.2101 -0.011108 22.6933 0.0407294 23.2678C0.129594 24.2988 0.433213 25.6151 1.44034 26.7374C1.8069 27.1483 2.26233 27.4564 2.76219 27.6771C3.11024 27.8292 3.48422 27.932 3.86189 27.989C3.97667 28.0081 4.09516 28.0119 4.20994 28.0233C4.24697 28.0271 4.28029 28.0309 4.31361 28.0347C4.44321 28.0423 4.5765 28.0423 4.7098 28.0385H4.72831C4.82458 28.0347 4.92085 28.0233 5.01712 28.0157C5.05045 28.0119 5.08747 28.0119 5.1208 28.0042C5.16893 28.0004 5.21336 27.989 5.2615 27.9814C5.2689 27.9814 5.27631 27.9814 5.28001 27.9776C6.05387 27.8559 6.787 27.5363 7.37202 27.0189C7.46829 26.9352 7.56086 26.8477 7.64602 26.7488C8.8679 25.4058 9.03822 23.6634 9.06414 22.6705C9.07155 22.3737 9.06414 22.1417 9.06785 22.0085V19.2731V11.9839C9.06785 11.7899 9.06785 11.5654 9.07155 11.3333C9.13449 10.5725 9.27149 10.0665 9.54549 9.65178C9.68249 9.42352 9.86022 9.2333 10.0602 9.09254C10.0898 9.06971 10.1231 9.05069 10.1527 9.03166C10.1638 9.02786 10.1749 9.02025 10.1861 9.01264C10.2268 8.98982 10.2712 8.96699 10.3119 8.94797C10.4823 8.87188 10.6711 8.82623 10.8636 8.82623C11.108 8.82623 11.3339 8.89851 11.5449 9.01264C11.9374 9.2333 12.2447 9.63657 12.4003 10.1349C12.4891 10.3594 12.5447 10.5991 12.5817 10.854C12.6076 11.2002 12.615 11.5768 12.615 11.9991V14.3616L12.6113 19.7068L12.5928 21.8944C12.5965 22.2025 12.5817 22.6819 12.6335 23.2487V23.2602C12.6372 23.3058 12.6446 23.3515 12.6483 23.3933C12.752 24.4053 13.0667 25.6569 14.0331 26.7336C14.3997 27.1406 14.8514 27.4526 15.3476 27.6695H15.3513C15.8252 27.8749 16.3399 27.9928 16.8583 28.0233C16.9397 28.0271 17.0212 28.0233 17.1026 28.0233C17.1619 28.0233 17.2248 28.0271 17.2841 28.0233C17.3248 28.0233 17.3655 28.0233 17.41 28.0233C17.4729 28.0195 17.5322 28.0081 17.5914 28.0042C17.6469 28.0004 17.6988 27.9966 17.7543 27.989C17.8025 27.9852 17.8469 27.9738 17.895 27.9662C18.7874 27.8216 19.6316 27.4146 20.2425 26.7374C21.1978 25.6836 21.5088 24.4091 21.6125 23.4237C21.6606 22.9596 21.6643 22.5601 21.6643 22.2786C21.6643 22.2101 21.668 22.1417 21.6717 22.0694L21.668 12.2198C21.6903 10.9225 21.8161 10.2034 22.1827 9.64037C22.3234 9.41211 22.4974 9.22189 22.7011 9.08112C22.7307 9.0583 22.7603 9.03927 22.7937 9.02025C22.8011 9.01645 22.8122 9.00884 22.8233 9.00123C22.864 8.9784 22.9084 8.95558 22.9492 8.93655C23.1232 8.86047 23.3083 8.81481 23.5009 8.81481C23.7452 8.81481 23.9748 8.8871 24.1822 9.00123C24.5709 9.22189 24.882 9.62515 25.0375 10.1235C25.2707 10.717 25.2744 11.417 25.2818 12.3073V22.1188C25.2818 22.134 25.2818 22.1455 25.2856 22.1607V32.6038C25.2856 33.3685 25.8854 33.9886 26.6333 33.9886C26.8074 33.9886 26.974 33.9505 27.1295 33.8897C27.6293 33.688 27.9811 33.1897 27.9811 32.6038L27.9885 27.1635L27.9959 22.2444L27.9996 19.1704L28.0477 12.0904C28.0366 11.7899 28.0514 11.3029 28.0033 10.7284Z" fill="#6BF0D6"/>
</svg>
