<svg width="161" height="30" viewBox="0 0 161 30" fill="none" xmlns="http://www.w3.org/2000/svg">
<path d="M32.8044 22.1886V7.80463H34.4378V20.7519H40.4577V22.1886H32.8044Z" fill="#1E0242"/>
<path d="M47.9385 18.6371C48.0418 20.7251 46.9357 22.474 44.6339 22.474C42.563 22.474 41.0881 21.1313 41.0881 16.8345C41.0881 14.5888 41.7015 11.232 44.596 11.232C48.1383 11.232 47.9385 14.4948 48.0177 16.9856H42.7042C42.7421 18.4257 42.4837 21.1883 44.6684 21.1883C46.1673 21.1883 46.5774 19.8456 46.4843 18.6338H47.9385V18.6371ZM46.4085 15.7402C46.3465 14.4982 46.4257 12.5243 44.6167 12.5243C42.8042 12.5243 42.7663 14.4814 42.7111 15.7402H46.4085Z" fill="#1E0242"/>
<path d="M56.4186 22.1887C56.3049 22.2054 56.1843 22.2289 56.0671 22.2659C54.7508 22.3196 54.2581 22.2054 54.0961 20.7519H54.0582C53.6861 21.6919 52.6799 22.4774 51.6392 22.4774C49.4546 22.4774 48.824 21.289 48.824 19.3521C48.824 18.946 48.8826 17.4119 50.3953 16.7607C51.2809 16.378 53.4896 15.5723 53.6826 15.4246C54.0169 15.1695 53.9755 14.7499 53.9755 14.196C53.9755 12.9842 53.5069 12.5277 52.2457 12.5277C50.826 12.5277 50.6365 13.1588 50.6503 14.4075H49.2547C49.1755 12.2021 50.2988 11.2387 52.5007 11.2387C55.7536 11.2387 55.4744 13.8872 55.4744 14.1356V20.2551C55.4744 20.5203 55.4365 20.9064 55.7536 21.0574C55.9706 21.1178 56.2015 21.0977 56.4186 21.0809V22.1887ZM53.8652 16.4351C53.0934 16.8748 52.2285 17.2038 51.4015 17.5898C50.6744 17.9121 50.4366 18.7009 50.4366 19.426C50.4366 20.5035 50.7123 21.195 51.9735 21.195C52.5627 21.195 53.8618 20.7519 53.8618 19.0265V16.4351H53.8652Z" fill="#1E0242"/>
<path d="M59.2753 13.2696H59.3132C59.961 11.8698 60.8845 11.2722 62.5213 11.4132V12.907C60.5124 12.5646 59.3304 13.7899 59.3304 15.7268V22.1887H57.7764V11.524H59.2753V13.2696Z" fill="#1E0242"/>
<path d="M64.9092 12.6955H64.9471C65.6983 11.7724 66.5012 11.2353 67.6831 11.2353C69.3199 11.2353 70.3847 12.0812 70.3847 13.9611V22.1886H68.8306V14.3807C68.8306 13.2695 68.455 12.5243 67.1938 12.5243C66.6218 12.5243 66.0705 12.7358 65.657 13.1151C65.0264 13.6757 64.9471 14.2867 64.9471 15.0554V22.1886H63.3931V11.524H64.9092V12.6955Z" fill="#1E0242"/>
<path d="M72.4521 7.80463H74.0062V9.72473H72.4521V7.80463ZM72.4521 11.524H74.0062V22.1886H72.4521V11.524Z" fill="#1E0242"/>
<path d="M77.5762 12.6955H77.6141C78.3653 11.7724 79.1682 11.2353 80.3501 11.2353C81.9835 11.2353 83.0517 12.0812 83.0517 13.9611V22.1886H81.4976V14.3807C81.4976 13.2695 81.122 12.5243 79.8643 12.5243C79.2923 12.5243 78.7409 12.7358 78.324 13.1151C77.6934 13.6757 77.6141 14.2867 77.6141 15.0554V22.1886H76.0601V11.524H77.5762V12.6955Z" fill="#1E0242"/>
<path d="M90.5256 11.524H92.0797V20.9064C92.0797 22.2088 91.9763 23.2058 91.2492 24.3337C90.5635 25.3911 89.4402 25.8174 88.2376 25.8174C86.4871 25.8174 85.188 25.0252 84.9675 23.2091H86.4905C86.6284 24.1658 87.259 24.5284 88.1997 24.5284C90.722 24.5284 90.4636 22.1148 90.4877 20.9466H90.4498C89.7985 22.0342 89.0887 22.4773 88.0894 22.4773C86.0185 22.4773 84.5815 21.0775 84.5815 16.7842C84.5815 14.5384 85.1535 11.2387 88.0515 11.2387C89.0473 11.2387 89.957 11.7187 90.4911 12.7358H90.5325V11.524H90.5256ZM86.1976 16.858C86.1976 19.4629 86.6456 21.1917 88.1824 21.1917C90.5428 21.1917 90.5256 18.3317 90.5256 16.6264C90.5256 14.5149 90.0708 12.521 88.3409 12.521C86.27 12.5243 86.1976 15.4213 86.1976 16.858Z" fill="#1E0242"/>
<path d="M103.716 7.80463H106.59V22.1886H104.953V10.3357C104.953 9.72138 104.991 9.13058 104.953 8.51627H104.916C104.74 9.35548 104.602 9.89929 104.461 10.4498L101.373 22.1886H99.4194L96.3319 10.2786C96.1975 9.7818 96.0769 9.29842 95.9012 8.51627H95.8633C95.8633 9.13058 95.9012 9.7583 95.9012 10.3726V22.1886H94.2644V7.80463H97.1589L100.047 19.0265C100.205 19.6408 100.284 20.2316 100.364 21.1547H100.405C100.501 20.4263 100.605 19.718 100.78 19.003L103.716 7.80463Z" fill="#1E0242"/>
<path d="M115.532 22.1887C115.418 22.2054 115.298 22.2289 115.181 22.2659C113.861 22.3196 113.372 22.2054 113.21 20.7519H113.172C112.796 21.6919 111.79 22.4774 110.753 22.4774C108.568 22.4774 107.938 21.289 107.938 19.3521C107.938 18.946 107.996 17.4119 109.509 16.7607C110.394 16.378 112.603 15.5723 112.796 15.4246C113.13 15.1695 113.089 14.7499 113.089 14.196C113.089 12.9842 112.62 12.5277 111.359 12.5277C109.94 12.5277 109.747 13.1588 109.764 14.4075H108.368C108.289 12.2021 109.412 11.2387 111.614 11.2387C114.867 11.2387 114.588 13.8872 114.588 14.1356V20.2551C114.588 20.5203 114.55 20.9064 114.867 21.0574C115.084 21.1178 115.315 21.0977 115.532 21.0809V22.1887ZM112.979 16.4351C112.207 16.8748 111.342 17.2038 110.515 17.5898C109.788 17.9121 109.55 18.7009 109.55 19.426C109.55 20.5035 109.826 21.195 111.087 21.195C111.676 21.195 112.975 20.7519 112.975 19.0265V16.4351H112.979Z" fill="#1E0242"/>
<path d="M116.649 22.1886V7.80463H118.206V16.4921H118.244L121.986 11.524H123.833L120.453 15.6697L123.937 22.1886H122.128L119.385 16.8748L118.206 18.3921V22.1886H116.649Z" fill="#1E0242"/>
<path d="M130.956 18.6371C131.059 20.7251 129.953 22.474 127.651 22.474C125.58 22.474 124.105 21.1313 124.105 16.8345C124.105 14.5888 124.719 11.232 127.613 11.232C131.156 11.232 130.956 14.4948 131.035 16.9856H125.722C125.759 18.4257 125.501 21.1883 127.686 21.1883C129.185 21.1883 129.595 19.8456 129.502 18.6338H130.956V18.6371ZM129.426 15.7402C129.364 14.4982 129.443 12.5243 127.634 12.5243C125.825 12.5243 125.784 14.4814 125.728 15.7402H129.426Z" fill="#1E0242"/>
<path d="M136.155 22.4774C133.795 22.4774 132.241 21.0943 132.241 16.4955C132.241 13.2729 133.461 11.2387 136.155 11.2387C138.85 11.2387 140.07 13.2729 140.07 16.4955C140.073 21.1145 138.557 22.4774 136.155 22.4774ZM136.155 12.5243C134.56 12.5243 133.85 13.7529 133.85 16.9688C133.85 19.4831 134.346 21.1917 136.155 21.1917C138.006 21.1917 138.461 19.4831 138.461 16.9688C138.461 13.7529 137.789 12.5243 136.155 12.5243Z" fill="#1E0242"/>
<path d="M139.77 11.524H141.39L143.867 20.9063H143.909L146.39 11.524H147.999L144.715 22.1886H143.016L139.77 11.524Z" fill="#1E0242"/>
<path d="M154.391 18.6371C154.494 20.7251 153.388 22.474 151.086 22.474C149.015 22.474 147.541 21.1313 147.541 16.8345C147.541 14.5888 148.154 11.232 151.048 11.232C154.591 11.232 154.391 14.4948 154.47 16.9856H149.157C149.198 18.4257 148.936 21.1883 151.121 21.1883C152.62 21.1883 153.033 19.8456 152.937 18.6338H154.391V18.6371ZM152.857 15.7402C152.795 14.4982 152.875 12.5243 151.066 12.5243C149.253 12.5243 149.215 14.4814 149.157 15.7402H152.857Z" fill="#1E0242"/>
<path d="M157.754 13.2696H157.792C158.44 11.8698 159.363 11.2722 161 11.4132V12.907C158.991 12.5646 157.809 13.7899 157.809 15.7268V22.1887H156.255V11.524H157.754V13.2696Z" fill="#1E0242"/>
<path d="M10.7474 5.30379C10.713 5.30043 10.6751 5.29707 10.6406 5.29372C10.6992 5.30043 10.7578 5.3105 10.8164 5.31721C10.7922 5.31721 10.7716 5.3105 10.7474 5.30379Z" fill="#00A99D"/>
<path d="M10.4237 5.27694C10.3892 5.27359 10.3617 5.27023 10.3272 5.26687C10.2859 5.26352 10.2445 5.26687 10.1997 5.26687C10.2893 5.26687 10.3789 5.27359 10.4685 5.28366C10.4547 5.2803 10.4409 5.27694 10.4237 5.27694Z" fill="#00A99D"/>
<path d="M26.0609 9.46626C25.9782 8.55656 25.6956 7.3951 24.7584 6.40483C24.4172 6.0423 23.9934 5.77039 23.5282 5.5757C23.2043 5.44142 22.8563 5.35415 22.5048 5.30379C22.3945 5.28701 22.2877 5.28029 22.1809 5.27358C22.1499 5.27022 22.1188 5.26687 22.0844 5.26351C21.0575 5.21316 20.0065 5.51192 19.2381 6.15978C19.1485 6.23699 19.0624 6.3142 18.9831 6.39812C17.846 7.58644 17.6875 9.12387 17.6634 10C17.6461 10.2786 17.6496 10.4733 17.653 10.5203V19.2111C17.6289 20.3558 17.5152 20.9903 17.1741 21.4871C16.9398 21.853 16.5952 22.1081 16.1989 22.1853C16.1162 22.2021 16.0335 22.2121 15.9473 22.2121C15.2961 22.2121 14.7413 21.7321 14.5173 21.054C14.4863 20.9802 14.4656 20.903 14.445 20.8258C14.4002 20.6714 14.3657 20.517 14.345 20.3458C14.3002 19.9866 14.2933 19.5871 14.2933 19.1306V18.909V17.0426L14.3002 12.615L14.314 10.6814C14.3106 10.4095 14.3209 9.98657 14.2796 9.48976C14.2796 9.4864 14.2796 9.48305 14.2796 9.47633C14.1969 8.56663 13.9246 7.39846 12.977 6.40819C12.5911 6.00537 12.1466 5.7234 11.6745 5.53877C11.5505 5.49178 11.423 5.44478 11.2955 5.41121C11.2576 5.40114 11.2231 5.39443 11.1852 5.38436C11.0646 5.3575 10.9405 5.33065 10.8165 5.31051C10.7579 5.30379 10.6993 5.29372 10.6408 5.28701C10.5822 5.28029 10.5236 5.27358 10.4685 5.27022C10.3789 5.26351 10.2893 5.2568 10.1997 5.25344H10.179C10.1239 5.25344 10.0653 5.25008 10.0102 5.25344C9.99294 5.25344 9.97226 5.25344 9.95503 5.25344H9.94125H9.89645C9.83787 5.2568 9.78274 5.26687 9.72416 5.27022C9.70693 5.27022 9.6897 5.27358 9.67247 5.27694C9.63801 5.28029 9.607 5.28029 9.57254 5.28701C9.52775 5.29037 9.4864 5.30044 9.4416 5.30715C8.61115 5.43471 7.8255 5.79389 7.25694 6.38805C6.36791 7.31789 6.07846 8.44243 5.98198 9.31185C5.93718 9.72138 5.93374 10.0772 5.93374 10.3223C5.93374 10.386 5.93029 10.4431 5.92685 10.5069L5.93029 19.1977C5.90962 20.3424 5.79246 20.9768 5.45132 21.4736C5.32038 21.6751 5.15498 21.8463 4.9689 21.9671C4.94133 21.9839 4.91377 22.004 4.8862 22.0208C4.87586 22.0242 4.86897 22.0309 4.85863 22.0376C4.81728 22.0577 4.77938 22.0779 4.74148 22.0947C4.6002 22.1551 4.44858 22.1853 4.29007 22.192C4.2694 22.192 4.24872 22.1987 4.2246 22.1987C4.00062 22.1987 3.78698 22.1383 3.59401 22.0342C3.22875 21.8395 2.94275 21.4837 2.79458 21.0406C2.57749 20.517 2.57749 19.8993 2.56715 19.1172V10.4733C2.56715 10.4599 2.56715 10.4498 2.56715 10.4397V1.22189C2.5706 0.547163 2.00892 0 1.31631 0C1.15436 0 0.999294 0.0335683 0.854568 0.0872776C0.38938 0.268546 0.0620251 0.704935 0.0620251 1.22189L0.0551334 5.60926V6.02215L0.0516876 10.3625L0.0482418 13.0715L0 19.3219C0.00344584 19.5972 -0.0103375 20.0235 0.0379042 20.5304C0.120604 21.4401 0.403163 22.6015 1.34043 23.5918C1.68157 23.9543 2.10541 24.2262 2.5706 24.4209C2.89451 24.5552 3.24254 24.6459 3.59401 24.6962C3.70083 24.713 3.8111 24.7163 3.91792 24.7264C3.95238 24.7298 3.98339 24.7331 4.0144 24.7365C4.13501 24.7432 4.25906 24.7432 4.38311 24.7398H4.40034C4.48993 24.7365 4.57952 24.7264 4.66911 24.7197C4.70013 24.7163 4.73458 24.7163 4.7656 24.7096C4.81039 24.7063 4.85174 24.6962 4.89654 24.6895C4.90343 24.6895 4.91032 24.6895 4.91377 24.6861C5.63395 24.5787 6.31623 24.2967 6.86067 23.8402C6.95026 23.7664 7.03641 23.6892 7.11566 23.6019C8.25279 22.4169 8.4113 20.8795 8.43542 20.0034C8.44231 19.7415 8.43542 19.5368 8.43886 19.4193V17.0057V10.574C8.43886 10.4028 8.43886 10.2048 8.44231 10C8.50089 9.32863 8.62838 8.88217 8.88338 8.51628C9.01087 8.31487 9.17627 8.14703 9.36235 8.02283C9.38991 8.00268 9.42093 7.9859 9.44849 7.96912C9.45883 7.96576 9.46917 7.95905 9.47951 7.95233C9.51741 7.93219 9.55876 7.91205 9.59667 7.89527C9.75517 7.82813 9.93091 7.78785 10.1101 7.78785C10.3375 7.78785 10.5477 7.85163 10.7441 7.95233C11.1094 8.14703 11.3954 8.50285 11.5401 8.9426C11.6228 9.14065 11.6745 9.35213 11.709 9.57704C11.7331 9.88251 11.74 10.2148 11.74 10.5874V12.672L11.7365 17.3884L11.7193 19.3186C11.7227 19.5905 11.709 20.0134 11.7572 20.5136V20.5237C11.7607 20.5639 11.7675 20.6042 11.771 20.6412C11.8675 21.5341 12.1604 22.6385 13.0597 23.5884C13.4009 23.9476 13.8213 24.2229 14.283 24.4142H14.2865C14.7275 24.5955 15.2065 24.6996 15.6889 24.7264C15.7647 24.7298 15.8405 24.7264 15.9163 24.7264C15.9715 24.7264 16.03 24.7298 16.0852 24.7264C16.1231 24.7264 16.161 24.7264 16.2023 24.7264C16.2609 24.7231 16.3161 24.713 16.3712 24.7096C16.4229 24.7063 16.4711 24.7029 16.5228 24.6962C16.5676 24.6928 16.6089 24.6828 16.6537 24.6761C17.4842 24.5485 18.2698 24.1893 18.8384 23.5918C19.7274 22.662 20.0169 21.5374 20.1134 20.668C20.1582 20.2585 20.1616 19.906 20.1616 19.6576C20.1616 19.5972 20.1651 19.5368 20.1685 19.473L20.1651 10.7821C20.1857 9.63746 20.3029 9.00302 20.644 8.50621C20.775 8.3048 20.9369 8.13696 21.1264 8.01276C21.154 7.99261 21.1816 7.97583 21.2126 7.95905C21.2195 7.95569 21.2298 7.94898 21.2402 7.94226C21.2781 7.92212 21.3194 7.90198 21.3573 7.8852C21.5193 7.81806 21.6916 7.77778 21.8707 7.77778C22.0982 7.77778 22.3118 7.84156 22.5048 7.94226C22.8666 8.13696 23.156 8.49278 23.3008 8.93253C23.5179 9.45619 23.5213 10.0738 23.5282 10.8593V19.5166C23.5282 19.53 23.5282 19.5401 23.5316 19.5535V28.768C23.5316 29.4428 24.0899 29.9899 24.7859 29.9899C24.9479 29.9899 25.1029 29.9564 25.2477 29.9026C25.7129 29.7247 26.0402 29.285 26.0402 28.768L26.0471 23.9678L26.054 19.6274L26.0574 16.9151L26.1022 10.668C26.0919 10.4028 26.1057 9.97314 26.0609 9.46626Z" fill="#6BF0D6"/>
</svg>
